<svg width="205" height="48" viewBox="0 0 205 48" fill="none" xmlns="http://www.w3.org/2000/svg">
<path fill-rule="evenodd" clip-rule="evenodd" d="M193.486 27.0918H181.467L186.763 11.1328L192.754 11.1679L189.275 21.6927L195.248 21.6962L193.486 27.0918Z" fill="url(#paint0_linear_5531_6248)"/>
<path fill-rule="evenodd" clip-rule="evenodd" d="M168.949 47.809H163C163 47.809 173.835 14.7659 176.366 7.05242C177.549 3.44346 180.943 1 184.772 1H195.407C198.614 1 201.291 2.34231 202.955 4.61057C204.618 6.87896 205.09 9.78144 204.12 12.7424C203.149 15.7034 202.232 18.4985 201.392 21.0595C200.259 24.5175 197.118 26.9002 193.486 27.094C193.486 27.094 193.468 27.0879 198.555 11.5708C199.005 10.2015 198.841 8.86118 198.135 7.89989C197.43 6.93872 196.242 6.36986 194.669 6.36986H185.543C183.751 6.36986 182.163 7.51329 181.609 9.20215L168.949 47.809Z" fill="#F0145A"/>
<path d="M36.957 37H39.6289V18.7607H23.8574V37H26.5107V21.2656H36.957V37ZM60.3359 27.8896C60.3359 29.8564 59.668 31.5264 58.3691 32.8809C57.0703 34.2354 55.4932 34.9033 53.6748 34.9033C51.8564 34.9033 50.2793 34.2354 48.9805 32.8623C47.6816 31.4893 47.0322 29.8379 47.0322 27.8711C47.0322 25.9043 47.6816 24.2529 48.9805 22.8984C50.2793 21.5439 51.8564 20.8574 53.6748 20.8574C55.4932 20.8574 57.0703 21.5439 58.3691 22.8984C59.668 24.2529 60.3359 25.9229 60.3359 27.8896ZM44.3789 27.8896C44.3789 30.5615 45.2695 32.8066 47.0879 34.6436C48.9062 36.4619 51.0957 37.3896 53.6934 37.3896C56.2725 37.3896 58.4619 36.4619 60.2617 34.6436C62.0801 32.8066 62.9707 30.5615 62.9707 27.8896C62.9707 25.2178 62.0801 22.9727 60.2617 21.1357C58.4619 19.2988 56.2725 18.3711 53.6934 18.3711C51.0957 18.3711 48.9062 19.2988 47.0879 21.1357C45.2695 22.9727 44.3789 25.2178 44.3789 27.8896ZM66.4219 27.8711C66.4219 30.5059 67.3125 32.751 69.1123 34.6064C70.8936 36.4619 73.0459 37.3711 75.5322 37.3711C76.4229 37.3711 77.2949 37.2412 78.1484 36.9629C79.002 36.6846 79.707 36.3877 80.2451 36.0537C80.8018 35.7197 81.3213 35.3486 81.8037 34.9219C82.3047 34.4951 82.6387 34.1982 82.7871 34.0127C82.9355 33.8271 83.0469 33.6973 83.1211 33.5859L81.2285 31.8789L80.6162 32.6211C80.1895 33.1406 79.5029 33.6416 78.5566 34.1426C77.5918 34.6621 76.5898 34.9033 75.5322 34.9033C73.7881 34.9033 72.2666 34.2354 70.9863 32.8809C69.7061 31.5264 69.0752 29.8564 69.0752 27.8896C69.0752 25.9229 69.7061 24.2529 70.9863 22.8984C72.2666 21.5439 73.7881 20.8574 75.5322 20.8574C76.2188 20.8574 76.8867 20.9688 77.5176 21.1729C78.1484 21.3955 78.6494 21.6367 79.0576 21.8965C79.4473 22.1562 79.8184 22.4717 80.1523 22.8242C80.4863 23.1953 80.709 23.4365 80.8018 23.5664C80.9131 23.7148 80.9873 23.8076 81.0244 23.8818L82.9355 21.9893L82.1377 21.1172C81.6182 20.5234 80.7275 19.9111 79.5029 19.2988C78.2783 18.6865 76.9424 18.3711 75.5137 18.3711C73.0459 18.3711 70.9121 19.2988 69.1123 21.1543C67.3125 23.0098 66.4219 25.2363 66.4219 27.8711ZM89.207 18.7607V24.0859C89.207 27.0732 89.04 29.374 88.7432 30.9883C88.4463 32.584 88.0752 33.623 87.6299 34.0684C87.1846 34.5137 86.5723 34.7363 85.793 34.7363C85.2734 34.7363 84.7725 34.6064 84.2715 34.3652V37.0186L84.5312 37.0928C84.6797 37.167 84.9023 37.2227 85.2178 37.2969C85.5332 37.3525 85.8486 37.3896 86.1641 37.3896C87.0732 37.3896 87.8525 37.2041 88.502 36.833C89.1328 36.4619 89.7266 35.8125 90.2646 34.8848C90.7842 33.957 91.1924 32.584 91.4521 30.8027C91.7119 29.0215 91.8604 26.7764 91.8604 24.1045V21.2471H99.8389V37.0186H102.511V18.7793L89.207 18.7607ZM112.567 39.6533C111.881 41.5645 110.73 42.5107 109.116 42.5107C108.485 42.5107 107.854 42.3809 107.224 42.1211V44.6074L107.483 44.6816C107.669 44.7559 107.966 44.8301 108.337 44.8857C108.708 44.96 109.098 44.9785 109.506 44.9785C110.823 44.9785 111.918 44.5889 112.79 43.7725C113.644 42.9561 114.46 41.583 115.221 39.6533L123.589 18.7607H120.731L114.85 33.5859L108.949 18.7607H106.092L113.514 37L112.567 39.6533ZM139.36 18.7607H127.207V37H129.86V21.2285H139.36V18.7607ZM156.468 18.7607L145.446 32.4355V18.7607H142.793V37H145.057L156.078 23.3252V37H158.75V18.7607H156.468Z" fill="white"/>
<path fill-rule="evenodd" clip-rule="evenodd" d="M15.2268 1H21.0714L5.84464 47.8434H0L15.2268 1Z" fill="#F0145A"/>
<defs>
<linearGradient id="paint0_linear_5531_6248" x1="181.466" y1="24.0351" x2="194.783" y2="31.0597" gradientUnits="userSpaceOnUse">
<stop stop-color="#F0145A"/>
<stop offset="1" stop-color="#693264"/>
</linearGradient>
</defs>
</svg>
